<?xml version="1.0" encoding="UTF-8" standalone="no"?>
<!-- Created with Inkscape (http://www.inkscape.org/) -->
<svg
   xmlns:dc="http://purl.org/dc/elements/1.1/"
   xmlns:cc="http://web.resource.org/cc/"
   xmlns:rdf="http://www.w3.org/1999/02/22-rdf-syntax-ns#"
   xmlns:svg="http://www.w3.org/2000/svg"
   xmlns="http://www.w3.org/2000/svg"
   xmlns:sodipodi="http://sodipodi.sourceforge.net/DTD/sodipodi-0.dtd"
   xmlns:inkscape="http://www.inkscape.org/namespaces/inkscape"
   width="500"
   height="500"
   id="svg2"
   sodipodi:version="0.32"
   inkscape:version="0.45"
   sodipodi:modified="true"
   version="1.0">
  <defs
     id="defs4" />
  <sodipodi:namedview
     id="base"
     pagecolor="#ffffff"
     bordercolor="#666666"
     borderopacity="1.0"
     gridtolerance="10000"
     guidetolerance="10"
     objecttolerance="10"
     inkscape:pageopacity="0.0"
     inkscape:pageshadow="2"
     inkscape:zoom="0.34940017"
     inkscape:cx="531.52183"
     inkscape:cy="15.005104"
     inkscape:document-units="px"
     inkscape:current-layer="layer1"
     width="500px"
     height="500px"
     inkscape:window-width="1024"
     inkscape:window-height="718"
     inkscape:window-x="-8"
     inkscape:window-y="-8" />
  <metadata
     id="metadata7">
    <rdf:RDF>
      <cc:Work
         rdf:about="">
        <dc:format>image/svg+xml</dc:format>
        <dc:type
           rdf:resource="http://purl.org/dc/dcmitype/StillImage" />
      </cc:Work>
    </rdf:RDF>
  </metadata>
  <g
     inkscape:label="Layer 1"
     inkscape:groupmode="layer"
     id="layer1">
    <path
       style="fill:#000000"
       d="M 226.9998,492.41339 C 225.0748,492.19104 219.31381,491.52157 214.19759,490.92569 C 147.17928,483.12007 86.01397,444.87512 44.790222,385 C 16.017084,343.20868 2.515323,294.83406 4.319508,240 C 5.549972,202.60287 12.776952,172.45073 27.928366,141.5 C 55.965632,84.226538 109.68336,37.038924 169.4998,17.138475 C 195.01088,8.6511441 218.90963,4.9990169 248.92348,5.0012127 C 307.07423,5.0054668 357.30392,22.408592 400.58103,57.546138 C 412.77786,67.448989 434.76032,90.200038 444.05945,102.54473 C 476.972,146.23651 491.9998,192.31237 491.9998,249.53188 C 491.9998,279.60569 488.48091,302.47049 479.84662,328.5 C 467.7754,364.89072 448.65446,394.58232 418.34609,424 C 379.72535,461.48577 338.01513,482.44357 285.9998,490.49899 C 276.00321,492.04713 235.27111,493.36878 226.9998,492.41339 z M 262.9998,442.99115 C 309.79908,438.95525 348.94632,421.07747 383.37186,388.01959 C 422.16282,350.76971 441.9998,303.73191 441.9998,249 C 441.9998,227.928 439.91083,212.72113 434.23879,192.50288 C 420.81408,144.64993 382.52587,98.7092 336.02211,74.656005 C 308.16002,60.244868 280.88927,53.880614 246.9998,53.880614 C 194.37839,53.880614 150.73698,71.238513 112.25374,107.4744 C 75.37319,142.2012 54.891452,185.50478 52.120775,234.61072 C 48.749744,294.35702 66.62353,342.91426 107.39856,384.78239 C 124.94099,402.79509 140.08458,413.98123 160.4998,424.00674 C 192.26827,439.60762 227.20376,446.07815 262.9998,442.99115 z M 229.41376,417.57365 C 223.8616,414.74723 219.09625,408.99667 217.02095,402.6187 C 215.18729,396.98335 216.1362,384.50854 218.7795,379.5 C 219.94057,377.3 241.11926,353.225 265.84325,326 L 310.79598,276.5 L 209.14789,276 L 107.4998,275.5 L 103.403,273.30783 C 98.1119,270.47661 89.49715,261.03703 87.96352,256.3901 C 84.46607,245.79271 92.8252,227.79611 103.7733,222.35279 C 107.30647,220.59612 112.7597,220.47406 208.88444,220 L 310.26909,219.5 L 262.10663,169 C 209.51981,113.8609 208.66647,112.79198 208.66647,102.05921 C 208.66647,91.7255 216.09419,81.218826 226.95372,76.191509 C 234.4143,72.737706 244.58888,72.65562 251.27591,75.995285 C 257.8562,79.281641 397.0066,221.1065 400.59123,228.18044 C 404.12848,235.16086 405.61911,247.02472 404.10833,256.17287 C 402.04743,268.65205 400.78582,270.45498 377.71499,293.89075 C 243.3762,430.35458 256.01784,418.66759 241.66712,419.66476 C 235.36059,420.10298 233.88897,419.85184 229.41376,417.57365 z "
       id="path2194" />
  </g>
</svg>
